<?xml version="1.0" encoding="UTF-8" standalone="no"?>
<?xml-stylesheet href="styles.css" type="text/css"?>
<!DOCTYPE svg PUBLIC "-//W3C//DTD SVG 1.1//EN"
 "http://www.w3.org/Graphics/SVG/1.1/DTD/svg11.dtd">
<!-- Generated by graphviz version 2.43.0 (0)
 -->
<!-- Title: Rocket_hierarchy Pages: 1 -->
<svg width="539pt" height="360pt"
 viewBox="0.00 0.00 539.00 360.00" xmlns="http://www.w3.org/2000/svg" xmlns:xlink="http://www.w3.org/1999/xlink">
<g id="graph0" class="graph" transform="scale(1 1) rotate(0) translate(4 356)">
<title>Rocket_hierarchy</title>
<polygon fill="white" stroke="transparent" points="-4,4 -4,-356 535,-356 535,4 -4,4"/>
<!-- module_1 -->
<g id="node1" class="node">
<title>module_1</title>
<g id="a_node1"><a xlink:href="Rocket.dot.svg" xlink:title="&lt;TABLE&gt;">
<polygon fill="#ffdead" stroke="transparent" points="8.5,-269 8.5,-294 133.5,-294 133.5,-269 8.5,-269"/>
<polygon fill="none" stroke="black" points="8.5,-269 8.5,-294 133.5,-294 133.5,-269 8.5,-269"/>
<text text-anchor="start" x="42" y="-277.8" font-family="Times,serif" font-size="14.00"> Rocket </text>
<polygon fill="#fff8dc" stroke="transparent" points="8.5,-244 8.5,-269 133.5,-269 133.5,-244 8.5,-244"/>
<polygon fill="none" stroke="black" points="8.5,-244 8.5,-269 133.5,-269 133.5,-244 8.5,-244"/>
<text text-anchor="start" x="60" y="-252.8" font-family="Times,serif" font-size="14.00">alu</text>
<polygon fill="#fff8dc" stroke="transparent" points="8.5,-219 8.5,-244 133.5,-244 133.5,-219 8.5,-219"/>
<polygon fill="none" stroke="black" points="8.5,-219 8.5,-244 133.5,-244 133.5,-219 8.5,-219"/>
<text text-anchor="start" x="57" y="-227.8" font-family="Times,serif" font-size="14.00">bpu</text>
<polygon fill="#fff8dc" stroke="transparent" points="8.5,-194 8.5,-219 133.5,-219 133.5,-194 8.5,-194"/>
<polygon fill="none" stroke="black" points="8.5,-194 8.5,-219 133.5,-219 133.5,-194 8.5,-194"/>
<text text-anchor="start" x="60" y="-202.8" font-family="Times,serif" font-size="14.00">csr</text>
<polygon fill="#fff8dc" stroke="transparent" points="8.5,-169 8.5,-194 133.5,-194 133.5,-169 8.5,-169"/>
<polygon fill="none" stroke="black" points="8.5,-169 8.5,-194 133.5,-194 133.5,-169 8.5,-169"/>
<text text-anchor="start" x="57" y="-177.8" font-family="Times,serif" font-size="14.00">ibuf</text>
<polygon fill="#fff8dc" stroke="transparent" points="8.5,-144 8.5,-169 133.5,-169 133.5,-144 8.5,-144"/>
<polygon fill="none" stroke="black" points="8.5,-144 8.5,-169 133.5,-169 133.5,-144 8.5,-144"/>
<text text-anchor="start" x="60" y="-152.8" font-family="Times,serif" font-size="14.00">div</text>
<polygon fill="#fff8dc" stroke="transparent" points="8.5,-119 8.5,-144 133.5,-144 133.5,-119 8.5,-119"/>
<polygon fill="none" stroke="black" points="8.5,-119 8.5,-144 133.5,-144 133.5,-119 8.5,-119"/>
<text text-anchor="start" x="13.5" y="-127.8" font-family="Times,serif" font-size="14.00">PlusArgTimeout</text>
</a>
</g>
</g>
<!-- module_2 -->
<g id="node2" class="node">
<title>module_2</title>
<g id="a_node2"><a xlink:href="BreakpointUnit.dot.svg" xlink:title="&lt;TABLE&gt;">
<polygon fill="#ffdead" stroke="transparent" points="187,-267 187,-292 317,-292 317,-267 187,-267"/>
<polygon fill="none" stroke="black" points="187,-267 187,-292 317,-292 317,-267 187,-267"/>
<text text-anchor="start" x="192" y="-275.8" font-family="Times,serif" font-size="14.00"> BreakpointUnit </text>
</a>
</g>
</g>
<!-- module_1&#45;&gt;module_2 -->
<g id="edge1" class="edge">
<title>module_1:module_2&#45;&gt;module_2</title>
<path fill="none" stroke="black" d="M134.5,-232C155.57,-232 157.63,-244.71 177,-253 181.14,-254.77 185.45,-256.54 189.8,-258.27"/>
<polygon fill="black" stroke="black" points="188.77,-261.62 199.36,-261.98 191.31,-255.1 188.77,-261.62"/>
</g>
<!-- module_3 -->
<g id="node3" class="node">
<title>module_3</title>
<g id="a_node3"><a xlink:href="MulDiv.dot.svg" xlink:title="&lt;TABLE&gt;">
<polygon fill="#ffdead" stroke="transparent" points="217,-83 217,-108 288,-108 288,-83 217,-83"/>
<polygon fill="none" stroke="black" points="217,-83 217,-108 288,-108 288,-83 217,-83"/>
<text text-anchor="start" x="222" y="-91.8" font-family="Times,serif" font-size="14.00"> MulDiv </text>
</a>
</g>
</g>
<!-- module_1&#45;&gt;module_3 -->
<g id="edge2" class="edge">
<title>module_1:module_3&#45;&gt;module_3</title>
<path fill="none" stroke="black" d="M134.5,-156C158.41,-156 156.07,-134.57 177,-123 183.82,-119.23 191.26,-115.8 198.72,-112.75"/>
<polygon fill="black" stroke="black" points="200.08,-115.98 208.13,-109.09 197.54,-109.45 200.08,-115.98"/>
</g>
<!-- module_4 -->
<g id="node4" class="node">
<title>module_4</title>
<g id="a_node4"><a xlink:href="IBuf.dot.svg" xlink:title="&lt;TABLE&gt;">
<polygon fill="#ffdead" stroke="transparent" points="227,-161 227,-186 277,-186 277,-161 227,-161"/>
<polygon fill="none" stroke="black" points="227,-161 227,-186 277,-186 277,-161 227,-161"/>
<text text-anchor="start" x="232" y="-169.8" font-family="Times,serif" font-size="14.00"> IBuf </text>
<polygon fill="#fff8dc" stroke="transparent" points="227,-136 227,-161 277,-161 277,-136 227,-136"/>
<polygon fill="none" stroke="black" points="227,-136 227,-161 277,-161 277,-136 227,-136"/>
<text text-anchor="start" x="239" y="-144.8" font-family="Times,serif" font-size="14.00">exp</text>
</a>
</g>
</g>
<!-- module_1&#45;&gt;module_4 -->
<g id="edge4" class="edge">
<title>module_1:module_4&#45;&gt;module_4</title>
<path fill="none" stroke="black" d="M134.5,-181C159.3,-181 186.65,-176.54 208.62,-171.84"/>
<polygon fill="black" stroke="black" points="209.62,-175.2 218.61,-169.6 208.09,-168.37 209.62,-175.2"/>
</g>
<!-- module_6 -->
<g id="node6" class="node">
<title>module_6</title>
<g id="a_node6"><a xlink:href="ALU.dot.svg" xlink:title="&lt;TABLE&gt;">
<polygon fill="#ffdead" stroke="transparent" points="227,-321 227,-346 277,-346 277,-321 227,-321"/>
<polygon fill="none" stroke="black" points="227,-321 227,-346 277,-346 277,-321 227,-321"/>
<text text-anchor="start" x="232" y="-329.8" font-family="Times,serif" font-size="14.00"> ALU </text>
</a>
</g>
</g>
<!-- module_1&#45;&gt;module_6 -->
<g id="edge5" class="edge">
<title>module_1:module_6&#45;&gt;module_6</title>
<path fill="none" stroke="black" d="M134.5,-257C163.67,-257 153.06,-290.34 177,-307 186.64,-313.71 198.13,-318.95 209.16,-322.96"/>
<polygon fill="black" stroke="black" points="208.07,-326.29 218.66,-326.17 210.31,-319.66 208.07,-326.29"/>
</g>
<!-- module_7 -->
<g id="node7" class="node">
<title>module_7</title>
<g id="a_node7"><a xlink:href="PlusArgTimeout.dot.svg" xlink:title="&lt;TABLE&gt;">
<polygon fill="#ffdead" stroke="transparent" points="185,-31 185,-56 319,-56 319,-31 185,-31"/>
<polygon fill="none" stroke="black" points="185,-31 185,-56 319,-56 319,-31 185,-31"/>
<text text-anchor="start" x="190" y="-39.8" font-family="Times,serif" font-size="14.00"> PlusArgTimeout </text>
<polygon fill="#fff8dc" stroke="transparent" points="185,-6 185,-31 319,-31 319,-6 185,-6"/>
<polygon fill="none" stroke="black" points="185,-6 185,-31 319,-31 319,-6 185,-6"/>
<text text-anchor="start" x="197.5" y="-14.8" font-family="Times,serif" font-size="14.00">plusarg_reader</text>
</a>
</g>
</g>
<!-- module_1&#45;&gt;module_7 -->
<g id="edge7" class="edge">
<title>module_1:module_7&#45;&gt;module_7</title>
<path fill="none" stroke="black" d="M134.5,-131C167.91,-131 151.93,-91.08 177,-69 178.12,-68.02 179.27,-67.05 180.44,-66.1"/>
<polygon fill="black" stroke="black" points="182.58,-68.87 188.51,-60.1 178.4,-63.25 182.58,-68.87"/>
</g>
<!-- module_9 -->
<g id="node9" class="node">
<title>module_9</title>
<g id="a_node9"><a xlink:href="CSRFile.dot.svg" xlink:title="&lt;TABLE&gt;">
<polygon fill="#ffdead" stroke="transparent" points="214,-213 214,-238 291,-238 291,-213 214,-213"/>
<polygon fill="none" stroke="black" points="214,-213 214,-238 291,-238 291,-213 214,-213"/>
<text text-anchor="start" x="219" y="-221.8" font-family="Times,serif" font-size="14.00"> CSRFile </text>
</a>
</g>
</g>
<!-- module_1&#45;&gt;module_9 -->
<g id="edge8" class="edge">
<title>module_1:module_9&#45;&gt;module_9</title>
<path fill="none" stroke="black" d="M134.5,-206C154.5,-206 176.17,-208.9 195.32,-212.49"/>
<polygon fill="black" stroke="black" points="194.9,-215.97 205.38,-214.48 196.25,-209.11 194.9,-215.97"/>
</g>
<!-- module_5 -->
<g id="node5" class="node">
<title>module_5</title>
<g id="a_node5"><a xlink:href="RVCExpander.dot.svg" xlink:title="&lt;TABLE&gt;">
<polygon fill="#ffdead" stroke="transparent" points="388,-135 388,-160 507,-160 507,-135 388,-135"/>
<polygon fill="none" stroke="black" points="388,-135 388,-160 507,-160 507,-135 388,-135"/>
<text text-anchor="start" x="393" y="-143.8" font-family="Times,serif" font-size="14.00"> RVCExpander </text>
</a>
</g>
</g>
<!-- module_4&#45;&gt;module_5 -->
<g id="edge3" class="edge">
<title>module_4:module_5&#45;&gt;module_5</title>
<path fill="none" stroke="black" d="M278,-148C307.74,-148 340.45,-148 369.04,-148"/>
<polygon fill="black" stroke="black" points="369.37,-151.5 379.37,-148 369.37,-144.5 369.37,-151.5"/>
</g>
<!-- module_8 -->
<g id="node8" class="node">
<title>module_8</title>
<g id="a_node8"><a xlink:href="plusarg_reader_50.dot.svg" xlink:title="&lt;TABLE&gt;">
<polygon fill="#ffdead" stroke="transparent" points="371,-5 371,-30 523,-30 523,-5 371,-5"/>
<polygon fill="none" stroke="black" points="371,-5 371,-30 523,-30 523,-5 371,-5"/>
<text text-anchor="start" x="376" y="-13.8" font-family="Times,serif" font-size="14.00"> plusarg_reader_50 </text>
</a>
</g>
</g>
<!-- module_7&#45;&gt;module_8 -->
<g id="edge6" class="edge">
<title>module_7:module_8&#45;&gt;module_8</title>
<path fill="none" stroke="black" d="M320,-18C330.64,-18 341.77,-18 352.84,-18"/>
<polygon fill="black" stroke="black" points="352.97,-21.5 362.97,-18 352.97,-14.5 352.97,-21.5"/>
</g>
</g>
</svg>
